<mxfile host="app.diagrams.net" modified="2024-05-01T18:35:43.971Z" agent="Mozilla/5.0 (X11; Linux x86_64; rv:123.0) Gecko/20100101 Firefox/123.0" etag="tYwAo49Bge1B6kNqtjOA" version="24.3.1" type="github">
  <diagram id="R2lEEEUBdFMjLlhIrx00" name="Page-1">
    <mxGraphModel dx="1392" dy="747" grid="0" gridSize="10" guides="1" tooltips="1" connect="1" arrows="1" fold="1" page="1" pageScale="1" pageWidth="850" pageHeight="1100" math="0" shadow="0" extFonts="Permanent Marker^https://fonts.googleapis.com/css?family=Permanent+Marker">
      <root>
        <mxCell id="0" />
        <mxCell id="1" parent="0" />
        <mxCell id="pv7s_VZfFEPmUH7wGFJE-1" value="User" style="shape=table;startSize=30;container=1;collapsible=1;childLayout=tableLayout;fixedRows=1;rowLines=0;fontStyle=1;align=center;resizeLast=1;html=1;fontFamily=Lucida Console;" vertex="1" parent="1">
          <mxGeometry x="569" y="394" width="236.00000000000006" height="180" as="geometry" />
        </mxCell>
        <mxCell id="pv7s_VZfFEPmUH7wGFJE-2" value="" style="shape=tableRow;horizontal=0;startSize=0;swimlaneHead=0;swimlaneBody=0;fillColor=none;collapsible=0;dropTarget=0;points=[[0,0.5],[1,0.5]];portConstraint=eastwest;top=0;left=0;right=0;bottom=1;fontFamily=Lucida Console;" vertex="1" parent="pv7s_VZfFEPmUH7wGFJE-1">
          <mxGeometry y="30" width="236.00000000000006" height="30" as="geometry" />
        </mxCell>
        <mxCell id="pv7s_VZfFEPmUH7wGFJE-3" value="PK" style="shape=partialRectangle;connectable=0;fillColor=none;top=0;left=0;bottom=0;right=0;fontStyle=1;overflow=hidden;whiteSpace=wrap;html=1;fontFamily=Lucida Console;" vertex="1" parent="pv7s_VZfFEPmUH7wGFJE-2">
          <mxGeometry width="30" height="30" as="geometry">
            <mxRectangle width="30" height="30" as="alternateBounds" />
          </mxGeometry>
        </mxCell>
        <mxCell id="pv7s_VZfFEPmUH7wGFJE-4" value="&lt;font&gt;id int NOT NULL&lt;/font&gt;" style="shape=partialRectangle;connectable=0;fillColor=none;top=0;left=0;bottom=0;right=0;align=left;spacingLeft=6;fontStyle=5;overflow=hidden;whiteSpace=wrap;html=1;fontFamily=Lucida Console;" vertex="1" parent="pv7s_VZfFEPmUH7wGFJE-2">
          <mxGeometry x="30" width="206.00000000000006" height="30" as="geometry">
            <mxRectangle width="206.00000000000006" height="30" as="alternateBounds" />
          </mxGeometry>
        </mxCell>
        <mxCell id="pv7s_VZfFEPmUH7wGFJE-5" value="" style="shape=tableRow;horizontal=0;startSize=0;swimlaneHead=0;swimlaneBody=0;fillColor=none;collapsible=0;dropTarget=0;points=[[0,0.5],[1,0.5]];portConstraint=eastwest;top=0;left=0;right=0;bottom=0;fontFamily=Lucida Console;" vertex="1" parent="pv7s_VZfFEPmUH7wGFJE-1">
          <mxGeometry y="60" width="236.00000000000006" height="30" as="geometry" />
        </mxCell>
        <mxCell id="pv7s_VZfFEPmUH7wGFJE-6" value="" style="shape=partialRectangle;connectable=0;fillColor=none;top=0;left=0;bottom=0;right=0;editable=1;overflow=hidden;whiteSpace=wrap;html=1;fontFamily=Lucida Console;" vertex="1" parent="pv7s_VZfFEPmUH7wGFJE-5">
          <mxGeometry width="30" height="30" as="geometry">
            <mxRectangle width="30" height="30" as="alternateBounds" />
          </mxGeometry>
        </mxCell>
        <mxCell id="pv7s_VZfFEPmUH7wGFJE-7" value="username string NOT NULL" style="shape=partialRectangle;connectable=0;fillColor=none;top=0;left=0;bottom=0;right=0;align=left;spacingLeft=6;overflow=hidden;whiteSpace=wrap;html=1;fontFamily=Lucida Console;" vertex="1" parent="pv7s_VZfFEPmUH7wGFJE-5">
          <mxGeometry x="30" width="206.00000000000006" height="30" as="geometry">
            <mxRectangle width="206.00000000000006" height="30" as="alternateBounds" />
          </mxGeometry>
        </mxCell>
        <mxCell id="pv7s_VZfFEPmUH7wGFJE-8" value="" style="shape=tableRow;horizontal=0;startSize=0;swimlaneHead=0;swimlaneBody=0;fillColor=none;collapsible=0;dropTarget=0;points=[[0,0.5],[1,0.5]];portConstraint=eastwest;top=0;left=0;right=0;bottom=0;fontFamily=Lucida Console;" vertex="1" parent="pv7s_VZfFEPmUH7wGFJE-1">
          <mxGeometry y="90" width="236.00000000000006" height="30" as="geometry" />
        </mxCell>
        <mxCell id="pv7s_VZfFEPmUH7wGFJE-9" value="" style="shape=partialRectangle;connectable=0;fillColor=none;top=0;left=0;bottom=0;right=0;editable=1;overflow=hidden;whiteSpace=wrap;html=1;fontFamily=Lucida Console;" vertex="1" parent="pv7s_VZfFEPmUH7wGFJE-8">
          <mxGeometry width="30" height="30" as="geometry">
            <mxRectangle width="30" height="30" as="alternateBounds" />
          </mxGeometry>
        </mxCell>
        <mxCell id="pv7s_VZfFEPmUH7wGFJE-10" value="password_hash string NOT NULL" style="shape=partialRectangle;connectable=0;fillColor=none;top=0;left=0;bottom=0;right=0;align=left;spacingLeft=6;overflow=hidden;whiteSpace=wrap;html=1;fontFamily=Lucida Console;" vertex="1" parent="pv7s_VZfFEPmUH7wGFJE-8">
          <mxGeometry x="30" width="206.00000000000006" height="30" as="geometry">
            <mxRectangle width="206.00000000000006" height="30" as="alternateBounds" />
          </mxGeometry>
        </mxCell>
        <mxCell id="pv7s_VZfFEPmUH7wGFJE-11" value="" style="shape=tableRow;horizontal=0;startSize=0;swimlaneHead=0;swimlaneBody=0;fillColor=none;collapsible=0;dropTarget=0;points=[[0,0.5],[1,0.5]];portConstraint=eastwest;top=0;left=0;right=0;bottom=0;fontFamily=Lucida Console;" vertex="1" parent="pv7s_VZfFEPmUH7wGFJE-1">
          <mxGeometry y="120" width="236.00000000000006" height="30" as="geometry" />
        </mxCell>
        <mxCell id="pv7s_VZfFEPmUH7wGFJE-12" value="" style="shape=partialRectangle;connectable=0;fillColor=none;top=0;left=0;bottom=0;right=0;editable=1;overflow=hidden;whiteSpace=wrap;html=1;fontFamily=Lucida Console;" vertex="1" parent="pv7s_VZfFEPmUH7wGFJE-11">
          <mxGeometry width="30" height="30" as="geometry">
            <mxRectangle width="30" height="30" as="alternateBounds" />
          </mxGeometry>
        </mxCell>
        <mxCell id="pv7s_VZfFEPmUH7wGFJE-13" value="avatar string" style="shape=partialRectangle;connectable=0;fillColor=none;top=0;left=0;bottom=0;right=0;align=left;spacingLeft=6;overflow=hidden;whiteSpace=wrap;html=1;fontFamily=Lucida Console;" vertex="1" parent="pv7s_VZfFEPmUH7wGFJE-11">
          <mxGeometry x="30" width="206.00000000000006" height="30" as="geometry">
            <mxRectangle width="206.00000000000006" height="30" as="alternateBounds" />
          </mxGeometry>
        </mxCell>
        <mxCell id="pv7s_VZfFEPmUH7wGFJE-14" value="" style="shape=tableRow;horizontal=0;startSize=0;swimlaneHead=0;swimlaneBody=0;fillColor=none;collapsible=0;dropTarget=0;points=[[0,0.5],[1,0.5]];portConstraint=eastwest;top=0;left=0;right=0;bottom=0;fontFamily=Lucida Console;" vertex="1" parent="pv7s_VZfFEPmUH7wGFJE-1">
          <mxGeometry y="150" width="236.00000000000006" height="30" as="geometry" />
        </mxCell>
        <mxCell id="pv7s_VZfFEPmUH7wGFJE-15" value="" style="shape=partialRectangle;connectable=0;fillColor=none;top=0;left=0;bottom=0;right=0;editable=1;overflow=hidden;whiteSpace=wrap;html=1;fontFamily=Lucida Console;" vertex="1" parent="pv7s_VZfFEPmUH7wGFJE-14">
          <mxGeometry width="30" height="30" as="geometry">
            <mxRectangle width="30" height="30" as="alternateBounds" />
          </mxGeometry>
        </mxCell>
        <mxCell id="pv7s_VZfFEPmUH7wGFJE-16" value="role string NOT NULL" style="shape=partialRectangle;connectable=0;fillColor=none;top=0;left=0;bottom=0;right=0;align=left;spacingLeft=6;overflow=hidden;whiteSpace=wrap;html=1;fontFamily=Lucida Console;" vertex="1" parent="pv7s_VZfFEPmUH7wGFJE-14">
          <mxGeometry x="30" width="206.00000000000006" height="30" as="geometry">
            <mxRectangle width="206.00000000000006" height="30" as="alternateBounds" />
          </mxGeometry>
        </mxCell>
        <mxCell id="pv7s_VZfFEPmUH7wGFJE-17" value="Element" style="shape=table;startSize=30;container=1;collapsible=1;childLayout=tableLayout;fixedRows=1;rowLines=0;fontStyle=1;align=center;resizeLast=1;html=1;" vertex="1" parent="1">
          <mxGeometry x="20" y="84.59" width="230.69" height="147" as="geometry" />
        </mxCell>
        <mxCell id="pv7s_VZfFEPmUH7wGFJE-18" value="" style="shape=tableRow;horizontal=0;startSize=0;swimlaneHead=0;swimlaneBody=0;fillColor=none;collapsible=0;dropTarget=0;points=[[0,0.5],[1,0.5]];portConstraint=eastwest;top=0;left=0;right=0;bottom=1;" vertex="1" parent="pv7s_VZfFEPmUH7wGFJE-17">
          <mxGeometry y="30" width="230.69" height="30" as="geometry" />
        </mxCell>
        <mxCell id="pv7s_VZfFEPmUH7wGFJE-19" value="PK" style="shape=partialRectangle;connectable=0;fillColor=none;top=0;left=0;bottom=0;right=0;fontStyle=1;overflow=hidden;whiteSpace=wrap;html=1;" vertex="1" parent="pv7s_VZfFEPmUH7wGFJE-18">
          <mxGeometry width="30" height="30" as="geometry">
            <mxRectangle width="30" height="30" as="alternateBounds" />
          </mxGeometry>
        </mxCell>
        <mxCell id="pv7s_VZfFEPmUH7wGFJE-20" value="id int NOT NULL" style="shape=partialRectangle;connectable=0;fillColor=none;top=0;left=0;bottom=0;right=0;align=left;spacingLeft=6;fontStyle=5;overflow=hidden;whiteSpace=wrap;html=1;" vertex="1" parent="pv7s_VZfFEPmUH7wGFJE-18">
          <mxGeometry x="30" width="200.69" height="30" as="geometry">
            <mxRectangle width="200.69" height="30" as="alternateBounds" />
          </mxGeometry>
        </mxCell>
        <mxCell id="pv7s_VZfFEPmUH7wGFJE-21" value="" style="shape=tableRow;horizontal=0;startSize=0;swimlaneHead=0;swimlaneBody=0;fillColor=none;collapsible=0;dropTarget=0;points=[[0,0.5],[1,0.5]];portConstraint=eastwest;top=0;left=0;right=0;bottom=0;" vertex="1" parent="pv7s_VZfFEPmUH7wGFJE-17">
          <mxGeometry y="60" width="230.69" height="29" as="geometry" />
        </mxCell>
        <mxCell id="pv7s_VZfFEPmUH7wGFJE-22" value="" style="shape=partialRectangle;connectable=0;fillColor=none;top=0;left=0;bottom=0;right=0;editable=1;overflow=hidden;whiteSpace=wrap;html=1;" vertex="1" parent="pv7s_VZfFEPmUH7wGFJE-21">
          <mxGeometry width="30" height="29" as="geometry">
            <mxRectangle width="30" height="29" as="alternateBounds" />
          </mxGeometry>
        </mxCell>
        <mxCell id="pv7s_VZfFEPmUH7wGFJE-23" value="sign string NOT NULL" style="shape=partialRectangle;connectable=0;fillColor=none;top=0;left=0;bottom=0;right=0;align=left;spacingLeft=6;overflow=hidden;whiteSpace=wrap;html=1;" vertex="1" parent="pv7s_VZfFEPmUH7wGFJE-21">
          <mxGeometry x="30" width="200.69" height="29" as="geometry">
            <mxRectangle width="200.69" height="29" as="alternateBounds" />
          </mxGeometry>
        </mxCell>
        <mxCell id="pv7s_VZfFEPmUH7wGFJE-24" value="" style="shape=tableRow;horizontal=0;startSize=0;swimlaneHead=0;swimlaneBody=0;fillColor=none;collapsible=0;dropTarget=0;points=[[0,0.5],[1,0.5]];portConstraint=eastwest;top=0;left=0;right=0;bottom=0;" vertex="1" parent="pv7s_VZfFEPmUH7wGFJE-17">
          <mxGeometry y="89" width="230.69" height="28" as="geometry" />
        </mxCell>
        <mxCell id="pv7s_VZfFEPmUH7wGFJE-25" value="" style="shape=partialRectangle;connectable=0;fillColor=none;top=0;left=0;bottom=0;right=0;editable=1;overflow=hidden;whiteSpace=wrap;html=1;" vertex="1" parent="pv7s_VZfFEPmUH7wGFJE-24">
          <mxGeometry width="30" height="28" as="geometry">
            <mxRectangle width="30" height="28" as="alternateBounds" />
          </mxGeometry>
        </mxCell>
        <mxCell id="pv7s_VZfFEPmUH7wGFJE-26" value="atomic_weight float NOT NULL" style="shape=partialRectangle;connectable=0;fillColor=none;top=0;left=0;bottom=0;right=0;align=left;spacingLeft=6;overflow=hidden;whiteSpace=wrap;html=1;" vertex="1" parent="pv7s_VZfFEPmUH7wGFJE-24">
          <mxGeometry x="30" width="200.69" height="28" as="geometry">
            <mxRectangle width="200.69" height="28" as="alternateBounds" />
          </mxGeometry>
        </mxCell>
        <mxCell id="pv7s_VZfFEPmUH7wGFJE-27" value="" style="shape=tableRow;horizontal=0;startSize=0;swimlaneHead=0;swimlaneBody=0;fillColor=none;collapsible=0;dropTarget=0;points=[[0,0.5],[1,0.5]];portConstraint=eastwest;top=0;left=0;right=0;bottom=0;" vertex="1" parent="pv7s_VZfFEPmUH7wGFJE-17">
          <mxGeometry y="117" width="230.69" height="30" as="geometry" />
        </mxCell>
        <mxCell id="pv7s_VZfFEPmUH7wGFJE-28" value="" style="shape=partialRectangle;connectable=0;fillColor=none;top=0;left=0;bottom=0;right=0;editable=1;overflow=hidden;whiteSpace=wrap;html=1;" vertex="1" parent="pv7s_VZfFEPmUH7wGFJE-27">
          <mxGeometry width="30" height="30" as="geometry">
            <mxRectangle width="30" height="30" as="alternateBounds" />
          </mxGeometry>
        </mxCell>
        <mxCell id="pv7s_VZfFEPmUH7wGFJE-29" value="atomic_number int NOT NULL" style="shape=partialRectangle;connectable=0;fillColor=none;top=0;left=0;bottom=0;right=0;align=left;spacingLeft=6;overflow=hidden;whiteSpace=wrap;html=1;" vertex="1" parent="pv7s_VZfFEPmUH7wGFJE-27">
          <mxGeometry x="30" width="200.69" height="30" as="geometry">
            <mxRectangle width="200.69" height="30" as="alternateBounds" />
          </mxGeometry>
        </mxCell>
        <mxCell id="pv7s_VZfFEPmUH7wGFJE-33" value="Component" style="shape=table;startSize=30;container=1;collapsible=1;childLayout=tableLayout;fixedRows=1;rowLines=0;fontStyle=1;align=center;resizeLast=1;html=1;" vertex="1" parent="1">
          <mxGeometry x="303" y="83" width="180" height="150.17241379310343" as="geometry" />
        </mxCell>
        <mxCell id="pv7s_VZfFEPmUH7wGFJE-34" value="" style="shape=tableRow;horizontal=0;startSize=0;swimlaneHead=0;swimlaneBody=0;fillColor=none;collapsible=0;dropTarget=0;points=[[0,0.5],[1,0.5]];portConstraint=eastwest;top=0;left=0;right=0;bottom=1;" vertex="1" parent="pv7s_VZfFEPmUH7wGFJE-33">
          <mxGeometry y="30" width="180" height="30" as="geometry" />
        </mxCell>
        <mxCell id="pv7s_VZfFEPmUH7wGFJE-35" value="PK" style="shape=partialRectangle;connectable=0;fillColor=none;top=0;left=0;bottom=0;right=0;fontStyle=1;overflow=hidden;whiteSpace=wrap;html=1;" vertex="1" parent="pv7s_VZfFEPmUH7wGFJE-34">
          <mxGeometry width="30" height="30" as="geometry">
            <mxRectangle width="30" height="30" as="alternateBounds" />
          </mxGeometry>
        </mxCell>
        <mxCell id="pv7s_VZfFEPmUH7wGFJE-36" value="id int NOT NULL" style="shape=partialRectangle;connectable=0;fillColor=none;top=0;left=0;bottom=0;right=0;align=left;spacingLeft=6;fontStyle=5;overflow=hidden;whiteSpace=wrap;html=1;" vertex="1" parent="pv7s_VZfFEPmUH7wGFJE-34">
          <mxGeometry x="30" width="150" height="30" as="geometry">
            <mxRectangle width="150" height="30" as="alternateBounds" />
          </mxGeometry>
        </mxCell>
        <mxCell id="pv7s_VZfFEPmUH7wGFJE-37" value="" style="shape=tableRow;horizontal=0;startSize=0;swimlaneHead=0;swimlaneBody=0;fillColor=none;collapsible=0;dropTarget=0;points=[[0,0.5],[1,0.5]];portConstraint=eastwest;top=0;left=0;right=0;bottom=0;" vertex="1" parent="pv7s_VZfFEPmUH7wGFJE-33">
          <mxGeometry y="60" width="180" height="30" as="geometry" />
        </mxCell>
        <mxCell id="pv7s_VZfFEPmUH7wGFJE-38" value="" style="shape=partialRectangle;connectable=0;fillColor=none;top=0;left=0;bottom=0;right=0;editable=1;overflow=hidden;whiteSpace=wrap;html=1;" vertex="1" parent="pv7s_VZfFEPmUH7wGFJE-37">
          <mxGeometry width="30" height="30" as="geometry">
            <mxRectangle width="30" height="30" as="alternateBounds" />
          </mxGeometry>
        </mxCell>
        <mxCell id="pv7s_VZfFEPmUH7wGFJE-39" value="name string NOT NULL" style="shape=partialRectangle;connectable=0;fillColor=none;top=0;left=0;bottom=0;right=0;align=left;spacingLeft=6;overflow=hidden;whiteSpace=wrap;html=1;" vertex="1" parent="pv7s_VZfFEPmUH7wGFJE-37">
          <mxGeometry x="30" width="150" height="30" as="geometry">
            <mxRectangle width="150" height="30" as="alternateBounds" />
          </mxGeometry>
        </mxCell>
        <mxCell id="pv7s_VZfFEPmUH7wGFJE-40" value="" style="shape=tableRow;horizontal=0;startSize=0;swimlaneHead=0;swimlaneBody=0;fillColor=none;collapsible=0;dropTarget=0;points=[[0,0.5],[1,0.5]];portConstraint=eastwest;top=0;left=0;right=0;bottom=0;" vertex="1" parent="pv7s_VZfFEPmUH7wGFJE-33">
          <mxGeometry y="90" width="180" height="30" as="geometry" />
        </mxCell>
        <mxCell id="pv7s_VZfFEPmUH7wGFJE-41" value="FK" style="shape=partialRectangle;connectable=0;fillColor=none;top=0;left=0;bottom=0;right=0;editable=1;overflow=hidden;whiteSpace=wrap;html=1;" vertex="1" parent="pv7s_VZfFEPmUH7wGFJE-40">
          <mxGeometry width="30" height="30" as="geometry">
            <mxRectangle width="30" height="30" as="alternateBounds" />
          </mxGeometry>
        </mxCell>
        <mxCell id="pv7s_VZfFEPmUH7wGFJE-42" value="type_id " style="shape=partialRectangle;connectable=0;fillColor=none;top=0;left=0;bottom=0;right=0;align=left;spacingLeft=6;overflow=hidden;whiteSpace=wrap;html=1;" vertex="1" parent="pv7s_VZfFEPmUH7wGFJE-40">
          <mxGeometry x="30" width="150" height="30" as="geometry">
            <mxRectangle width="150" height="30" as="alternateBounds" />
          </mxGeometry>
        </mxCell>
        <mxCell id="pv7s_VZfFEPmUH7wGFJE-43" value="" style="shape=tableRow;horizontal=0;startSize=0;swimlaneHead=0;swimlaneBody=0;fillColor=none;collapsible=0;dropTarget=0;points=[[0,0.5],[1,0.5]];portConstraint=eastwest;top=0;left=0;right=0;bottom=0;" vertex="1" parent="pv7s_VZfFEPmUH7wGFJE-33">
          <mxGeometry y="120" width="180" height="30" as="geometry" />
        </mxCell>
        <mxCell id="pv7s_VZfFEPmUH7wGFJE-44" value="" style="shape=partialRectangle;connectable=0;fillColor=none;top=0;left=0;bottom=0;right=0;editable=1;overflow=hidden;whiteSpace=wrap;html=1;" vertex="1" parent="pv7s_VZfFEPmUH7wGFJE-43">
          <mxGeometry width="30" height="30" as="geometry">
            <mxRectangle width="30" height="30" as="alternateBounds" />
          </mxGeometry>
        </mxCell>
        <mxCell id="pv7s_VZfFEPmUH7wGFJE-45" value="formula string NOT NULL" style="shape=partialRectangle;connectable=0;fillColor=none;top=0;left=0;bottom=0;right=0;align=left;spacingLeft=6;overflow=hidden;whiteSpace=wrap;html=1;" vertex="1" parent="pv7s_VZfFEPmUH7wGFJE-43">
          <mxGeometry x="30" width="150" height="30" as="geometry">
            <mxRectangle width="150" height="30" as="alternateBounds" />
          </mxGeometry>
        </mxCell>
        <mxCell id="pv7s_VZfFEPmUH7wGFJE-46" value="Component_types" style="shape=table;startSize=30;container=1;collapsible=1;childLayout=tableLayout;fixedRows=1;rowLines=0;fontStyle=1;align=center;resizeLast=1;html=1;" vertex="1" parent="1">
          <mxGeometry x="569" y="85" width="219" height="125" as="geometry" />
        </mxCell>
        <mxCell id="pv7s_VZfFEPmUH7wGFJE-47" value="" style="shape=tableRow;horizontal=0;startSize=0;swimlaneHead=0;swimlaneBody=0;fillColor=none;collapsible=0;dropTarget=0;points=[[0,0.5],[1,0.5]];portConstraint=eastwest;top=0;left=0;right=0;bottom=1;" vertex="1" parent="pv7s_VZfFEPmUH7wGFJE-46">
          <mxGeometry y="30" width="219" height="30" as="geometry" />
        </mxCell>
        <mxCell id="pv7s_VZfFEPmUH7wGFJE-48" value="PK" style="shape=partialRectangle;connectable=0;fillColor=none;top=0;left=0;bottom=0;right=0;fontStyle=1;overflow=hidden;whiteSpace=wrap;html=1;" vertex="1" parent="pv7s_VZfFEPmUH7wGFJE-47">
          <mxGeometry width="30" height="30" as="geometry">
            <mxRectangle width="30" height="30" as="alternateBounds" />
          </mxGeometry>
        </mxCell>
        <mxCell id="pv7s_VZfFEPmUH7wGFJE-49" value="id int NOT NULL" style="shape=partialRectangle;connectable=0;fillColor=none;top=0;left=0;bottom=0;right=0;align=left;spacingLeft=6;fontStyle=5;overflow=hidden;whiteSpace=wrap;html=1;" vertex="1" parent="pv7s_VZfFEPmUH7wGFJE-47">
          <mxGeometry x="30" width="189" height="30" as="geometry">
            <mxRectangle width="189" height="30" as="alternateBounds" />
          </mxGeometry>
        </mxCell>
        <mxCell id="pv7s_VZfFEPmUH7wGFJE-50" value="" style="shape=tableRow;horizontal=0;startSize=0;swimlaneHead=0;swimlaneBody=0;fillColor=none;collapsible=0;dropTarget=0;points=[[0,0.5],[1,0.5]];portConstraint=eastwest;top=0;left=0;right=0;bottom=0;" vertex="1" parent="pv7s_VZfFEPmUH7wGFJE-46">
          <mxGeometry y="60" width="219" height="30" as="geometry" />
        </mxCell>
        <mxCell id="pv7s_VZfFEPmUH7wGFJE-51" value="" style="shape=partialRectangle;connectable=0;fillColor=none;top=0;left=0;bottom=0;right=0;editable=1;overflow=hidden;whiteSpace=wrap;html=1;" vertex="1" parent="pv7s_VZfFEPmUH7wGFJE-50">
          <mxGeometry width="30" height="30" as="geometry">
            <mxRectangle width="30" height="30" as="alternateBounds" />
          </mxGeometry>
        </mxCell>
        <mxCell id="pv7s_VZfFEPmUH7wGFJE-52" value="name string NOT NULL" style="shape=partialRectangle;connectable=0;fillColor=none;top=0;left=0;bottom=0;right=0;align=left;spacingLeft=6;overflow=hidden;whiteSpace=wrap;html=1;" vertex="1" parent="pv7s_VZfFEPmUH7wGFJE-50">
          <mxGeometry x="30" width="189" height="30" as="geometry">
            <mxRectangle width="189" height="30" as="alternateBounds" />
          </mxGeometry>
        </mxCell>
        <mxCell id="pv7s_VZfFEPmUH7wGFJE-53" value="" style="shape=tableRow;horizontal=0;startSize=0;swimlaneHead=0;swimlaneBody=0;fillColor=none;collapsible=0;dropTarget=0;points=[[0,0.5],[1,0.5]];portConstraint=eastwest;top=0;left=0;right=0;bottom=0;" vertex="1" parent="pv7s_VZfFEPmUH7wGFJE-46">
          <mxGeometry y="90" width="219" height="35" as="geometry" />
        </mxCell>
        <mxCell id="pv7s_VZfFEPmUH7wGFJE-54" value="" style="shape=partialRectangle;connectable=0;fillColor=none;top=0;left=0;bottom=0;right=0;editable=1;overflow=hidden;whiteSpace=wrap;html=1;" vertex="1" parent="pv7s_VZfFEPmUH7wGFJE-53">
          <mxGeometry width="30" height="35" as="geometry">
            <mxRectangle width="30" height="35" as="alternateBounds" />
          </mxGeometry>
        </mxCell>
        <mxCell id="pv7s_VZfFEPmUH7wGFJE-55" value="has_formula boolean NOT NULL" style="shape=partialRectangle;connectable=0;fillColor=none;top=0;left=0;bottom=0;right=0;align=left;spacingLeft=6;overflow=hidden;whiteSpace=wrap;html=1;" vertex="1" parent="pv7s_VZfFEPmUH7wGFJE-53">
          <mxGeometry x="30" width="189" height="35" as="geometry">
            <mxRectangle width="189" height="35" as="alternateBounds" />
          </mxGeometry>
        </mxCell>
        <mxCell id="pv7s_VZfFEPmUH7wGFJE-92" value="" style="edgeStyle=entityRelationEdgeStyle;fontSize=12;html=1;endArrow=ERoneToMany;rounded=0;exitX=1;exitY=0.5;exitDx=0;exitDy=0;entryX=0;entryY=0.5;entryDx=0;entryDy=0;" edge="1" parent="1" source="pv7s_VZfFEPmUH7wGFJE-40" target="pv7s_VZfFEPmUH7wGFJE-47">
          <mxGeometry width="100" height="100" relative="1" as="geometry">
            <mxPoint x="500" y="143" as="sourcePoint" />
            <mxPoint x="600" y="43" as="targetPoint" />
          </mxGeometry>
        </mxCell>
        <mxCell id="pv7s_VZfFEPmUH7wGFJE-109" value="Component_Element" style="shape=table;startSize=30;container=1;collapsible=1;childLayout=tableLayout;fixedRows=1;rowLines=0;fontStyle=1;align=center;resizeLast=1;html=1;whiteSpace=wrap;" vertex="1" parent="1">
          <mxGeometry x="20" y="298" width="222.75" height="120" as="geometry" />
        </mxCell>
        <mxCell id="pv7s_VZfFEPmUH7wGFJE-110" value="" style="shape=tableRow;horizontal=0;startSize=0;swimlaneHead=0;swimlaneBody=0;fillColor=none;collapsible=0;dropTarget=0;points=[[0,0.5],[1,0.5]];portConstraint=eastwest;top=0;left=0;right=0;bottom=0;html=1;" vertex="1" parent="pv7s_VZfFEPmUH7wGFJE-109">
          <mxGeometry y="30" width="222.75" height="30" as="geometry" />
        </mxCell>
        <mxCell id="pv7s_VZfFEPmUH7wGFJE-111" value="PK,FK1" style="shape=partialRectangle;connectable=0;fillColor=none;top=0;left=0;bottom=0;right=0;fontStyle=1;overflow=hidden;html=1;whiteSpace=wrap;" vertex="1" parent="pv7s_VZfFEPmUH7wGFJE-110">
          <mxGeometry width="60" height="30" as="geometry">
            <mxRectangle width="60" height="30" as="alternateBounds" />
          </mxGeometry>
        </mxCell>
        <mxCell id="pv7s_VZfFEPmUH7wGFJE-112" value="element_id" style="shape=partialRectangle;connectable=0;fillColor=none;top=0;left=0;bottom=0;right=0;align=left;spacingLeft=6;fontStyle=5;overflow=hidden;html=1;whiteSpace=wrap;" vertex="1" parent="pv7s_VZfFEPmUH7wGFJE-110">
          <mxGeometry x="60" width="162.75" height="30" as="geometry">
            <mxRectangle width="162.75" height="30" as="alternateBounds" />
          </mxGeometry>
        </mxCell>
        <mxCell id="pv7s_VZfFEPmUH7wGFJE-113" value="" style="shape=tableRow;horizontal=0;startSize=0;swimlaneHead=0;swimlaneBody=0;fillColor=none;collapsible=0;dropTarget=0;points=[[0,0.5],[1,0.5]];portConstraint=eastwest;top=0;left=0;right=0;bottom=1;html=1;" vertex="1" parent="pv7s_VZfFEPmUH7wGFJE-109">
          <mxGeometry y="60" width="222.75" height="30" as="geometry" />
        </mxCell>
        <mxCell id="pv7s_VZfFEPmUH7wGFJE-114" value="PK,FK2" style="shape=partialRectangle;connectable=0;fillColor=none;top=0;left=0;bottom=0;right=0;fontStyle=1;overflow=hidden;html=1;whiteSpace=wrap;" vertex="1" parent="pv7s_VZfFEPmUH7wGFJE-113">
          <mxGeometry width="60" height="30" as="geometry">
            <mxRectangle width="60" height="30" as="alternateBounds" />
          </mxGeometry>
        </mxCell>
        <mxCell id="pv7s_VZfFEPmUH7wGFJE-115" value="component_id" style="shape=partialRectangle;connectable=0;fillColor=none;top=0;left=0;bottom=0;right=0;align=left;spacingLeft=6;fontStyle=5;overflow=hidden;html=1;whiteSpace=wrap;" vertex="1" parent="pv7s_VZfFEPmUH7wGFJE-113">
          <mxGeometry x="60" width="162.75" height="30" as="geometry">
            <mxRectangle width="162.75" height="30" as="alternateBounds" />
          </mxGeometry>
        </mxCell>
        <mxCell id="pv7s_VZfFEPmUH7wGFJE-116" value="" style="shape=tableRow;horizontal=0;startSize=0;swimlaneHead=0;swimlaneBody=0;fillColor=none;collapsible=0;dropTarget=0;points=[[0,0.5],[1,0.5]];portConstraint=eastwest;top=0;left=0;right=0;bottom=0;html=1;" vertex="1" parent="pv7s_VZfFEPmUH7wGFJE-109">
          <mxGeometry y="90" width="222.75" height="30" as="geometry" />
        </mxCell>
        <mxCell id="pv7s_VZfFEPmUH7wGFJE-117" value="" style="shape=partialRectangle;connectable=0;fillColor=none;top=0;left=0;bottom=0;right=0;editable=1;overflow=hidden;html=1;whiteSpace=wrap;" vertex="1" parent="pv7s_VZfFEPmUH7wGFJE-116">
          <mxGeometry width="60" height="30" as="geometry">
            <mxRectangle width="60" height="30" as="alternateBounds" />
          </mxGeometry>
        </mxCell>
        <mxCell id="pv7s_VZfFEPmUH7wGFJE-118" value="quantity int NOT NULL" style="shape=partialRectangle;connectable=0;fillColor=none;top=0;left=0;bottom=0;right=0;align=left;spacingLeft=6;overflow=hidden;html=1;whiteSpace=wrap;" vertex="1" parent="pv7s_VZfFEPmUH7wGFJE-116">
          <mxGeometry x="60" width="162.75" height="30" as="geometry">
            <mxRectangle width="162.75" height="30" as="alternateBounds" />
          </mxGeometry>
        </mxCell>
      </root>
    </mxGraphModel>
  </diagram>
</mxfile>
